<svg width="57" height="67" viewBox="0 0 57 67" fill="none" xmlns="http://www.w3.org/2000/svg">
<path d="M28.3311 47.9966V56.4814L8.34277 44.9504V21.8745L15.6868 26.1165L15.5623 26.186L15.9103 36.0764L24.4363 31.1659L28.3311 33.4056V37.8567L19.5939 42.9053L28.1922 48.0798L28.3311 47.9966Z" fill="white"/>
<path d="M48.6529 36.2711V36.2856L52.1151 34.2817L55.871 40.7772L48.6529 44.9505L28.4974 56.5792L28.3311 56.4816V47.9968L48.6529 36.2711Z" fill="#D0D1CC"/>
<path d="M31.1391 27.2849L35.0209 33.9894L28.3308 37.8567V33.4056L24.436 31.166L31.1391 27.2849Z" fill="#D0D1CC"/>
<path d="M28.5402 10.0651L35.7446 5.90625L39.4715 12.3742L36.0079 14.3628L36.0224 14.378L15.6868 26.1167L8.34277 21.8747V21.6808L28.4975 10.0383L28.5402 10.0651Z" fill="#D0D1CC"/>
<path d="M8.34279 21.8746L0.177734 17.1602V49.6649L28.3312 65.9263V56.4815L8.34279 44.9504V21.8746Z" fill="#F4753B"/>
<path d="M19.5938 42.9053L28.1921 48.0798L28.331 47.9966V37.8567L19.5938 42.9053Z" fill="#F4753B"/>
<path d="M24.4365 31.1661L15.6869 26.1167L15.5625 26.1862L15.9104 36.0765L24.4365 31.1661Z" fill="#F4753B"/>
<path d="M36.2307 5.05835L28.4975 0.593506L0.177734 16.9504V17.1602L8.34279 21.8746V21.6807L28.4975 10.0383L28.5402 10.065L35.7446 5.90619L39.4716 12.3741L36.0079 14.3628L36.0224 14.378L15.6868 26.1166L24.4363 31.166L31.1394 27.2849L35.0212 33.9894L28.3312 37.8568V47.9967L48.653 36.271V36.2855L52.1152 34.2817L55.8711 40.7771L48.653 44.9504L28.4975 56.5792L28.3312 56.4815V65.9263L28.4975 66.0232L56.8318 49.6649V40.7771V16.9504L36.2307 5.05835Z" fill="#EBA222"/>
</svg>
