<svg width="68" height="68" viewBox="0 0 68 68" fill="none" xmlns="http://www.w3.org/2000/svg">
<g filter="url(#filter0_d_1_14)">
<rect x="4.75586" y="0.221069" width="59.1117" height="59.1117" rx="8" fill="white"/>
</g>
<path fill-rule="evenodd" clip-rule="evenodd" d="M30.4257 32.39H35.8119C36.2178 32.39 36.5545 32.05 36.5545 31.64C36.5545 31.23 36.2178 30.9 35.8119 30.9H30.4257C30.0198 30.9 29.6832 31.23 29.6832 31.64C29.6832 32.05 30.0198 32.39 30.4257 32.39ZM33.7723 25.9H30.4257C30.0198 25.9 29.6832 26.24 29.6832 26.65C29.6832 27.06 30.0198 27.39 30.4257 27.39H33.7723C34.1782 27.39 34.5149 27.06 34.5149 26.65C34.5149 26.24 34.1782 25.9 33.7723 25.9ZM40.8381 25.0256C41.0708 25.0229 41.3242 25.02 41.5545 25.02C41.802 25.02 42 25.22 42 25.47V33.51C42 35.99 40.0099 38 37.5545 38H29.6733C27.099 38 25 35.89 25 33.29V22.51C25 20.03 27 18 29.4653 18H34.7525C35.0099 18 35.2079 18.21 35.2079 18.46V21.68C35.2079 23.51 36.703 25.01 38.5149 25.02C38.9381 25.02 39.3112 25.0232 39.6377 25.0259C39.8917 25.0281 40.1175 25.03 40.3168 25.03C40.4578 25.03 40.6405 25.0279 40.8381 25.0256ZM41.1111 23.566C40.2972 23.569 39.3378 23.566 38.6477 23.559C37.5527 23.559 36.6507 22.648 36.6507 21.542V18.906C36.6507 18.475 37.1685 18.261 37.4646 18.572C38.0004 19.1348 38.7368 19.9083 39.4699 20.6784C40.2009 21.4463 40.9286 22.2107 41.4507 22.759C41.7398 23.062 41.5279 23.565 41.1111 23.566Z" fill="#4597EA"/>
<defs>
<filter id="filter0_d_1_14" x="0.755859" y="0.221069" width="67.1117" height="67.1117" filterUnits="userSpaceOnUse" color-interpolation-filters="sRGB">
<feFlood flood-opacity="0" result="BackgroundImageFix"/>
<feColorMatrix in="SourceAlpha" type="matrix" values="0 0 0 0 0 0 0 0 0 0 0 0 0 0 0 0 0 0 127 0" result="hardAlpha"/>
<feOffset dy="4"/>
<feGaussianBlur stdDeviation="2"/>
<feColorMatrix type="matrix" values="0 0 0 0 0.108333 0 0 0 0 0.100234 0 0 0 0 0.0985833 0 0 0 0.03 0"/>
<feBlend mode="normal" in2="BackgroundImageFix" result="effect1_dropShadow_1_14"/>
<feBlend mode="normal" in="SourceGraphic" in2="effect1_dropShadow_1_14" result="shape"/>
</filter>
</defs>
</svg>
