<svg width="74" height="74" viewBox="0 0 74 74" fill="none" xmlns="http://www.w3.org/2000/svg">
<g filter="url(#filter0_d_9_214)">
<circle cx="36.9169" cy="32.9169" r="21.9169" fill="#F4753B"/>
<circle cx="36.9169" cy="32.9169" r="20.4169" stroke="white" stroke-width="3"/>
</g>
<path d="M27.7153 36.999H46.1026L46.0494 37.5322C45.885 38.8479 44.9495 39.6162 43.9988 39.6162H29.819C28.7446 39.6162 27.9035 38.6911 27.7696 37.542C27.7681 37.53 27.7755 37.6029 27.7153 36.999V36.999Z" fill="white"/>
<path d="M46.9044 28.9638L46.2196 35.8271H27.5988L26.9301 29.1095C26.7511 27.5343 28.4502 26.8062 29.2346 27.7076C31.1219 29.8837 31.3239 30.3133 31.9579 30.2377C32.1962 30.2087 32.3664 30.1019 32.5078 29.9716C36.3501 26.2853 36.0989 26.524 36.1384 26.4927C36.6555 26.0949 37.3206 26.1606 37.7102 26.4849C41.5926 29.7472 41.4127 29.6035 41.4994 29.6529C41.8619 29.8612 42.2894 29.8347 42.6548 29.4763C44.8123 27.3563 44.6755 27.4885 44.7155 27.4564C45.7025 26.688 47.0623 27.581 46.9044 28.9638V28.9638Z" fill="white"/>
<defs>
<filter id="filter0_d_9_214" x="0" y="0" width="73.8337" height="73.8337" filterUnits="userSpaceOnUse" color-interpolation-filters="sRGB">
<feFlood flood-opacity="0" result="BackgroundImageFix"/>
<feColorMatrix in="SourceAlpha" type="matrix" values="0 0 0 0 0 0 0 0 0 0 0 0 0 0 0 0 0 0 127 0" result="hardAlpha"/>
<feOffset dy="4"/>
<feGaussianBlur stdDeviation="7.5"/>
<feColorMatrix type="matrix" values="0 0 0 0 0 0 0 0 0 0 0 0 0 0 0 0 0 0 0.15 0"/>
<feBlend mode="normal" in2="BackgroundImageFix" result="effect1_dropShadow_9_214"/>
<feBlend mode="normal" in="SourceGraphic" in2="effect1_dropShadow_9_214" result="shape"/>
</filter>
</defs>
</svg>
