<svg width="68" height="68" viewBox="0 0 68 68" fill="none" xmlns="http://www.w3.org/2000/svg">
<g filter="url(#filter0_d_1_20)">
<rect x="4.75586" y="0.221069" width="59.1117" height="59.1117" rx="8" fill="white"/>
</g>
<path fill-rule="evenodd" clip-rule="evenodd" d="M43.7872 24.539C43.6518 24.6706 43.4681 24.7457 43.2747 24.7457C42.559 24.7457 41.9787 25.3095 41.9787 25.9953C41.9787 26.6858 42.5522 27.2467 43.2611 27.2543C43.6605 27.258 44 27.5286 44 27.9166V30.3265C44 32.3549 42.3075 34 40.2186 34H37.0658C36.7398 34 36.4758 33.7435 36.4758 33.4269V31.3975C36.4758 31.0029 36.1567 30.6929 35.7505 30.6929C35.354 30.6929 35.0251 31.0029 35.0251 31.3975V33.4269C35.0251 33.7435 34.7611 34 34.4362 34H27.7814C25.7021 34 24 32.3558 24 30.3265V27.9166C24 27.5286 24.3395 27.258 24.7389 27.2543C25.4487 27.2467 26.0213 26.6858 26.0213 25.9953C26.0213 25.3282 25.4603 24.8209 24.7253 24.8209C24.5319 24.8209 24.3482 24.7457 24.2128 24.6142C24.0774 24.4827 24 24.3042 24 24.1163V21.6829C24 19.6573 25.706 18 27.7911 18H34.4362C34.7611 18 35.0251 18.2565 35.0251 18.5731V20.9783C35.0251 21.3635 35.354 21.6829 35.7505 21.6829C36.1567 21.6829 36.4758 21.3635 36.4758 20.9783V18.5731C36.4758 18.2565 36.7398 18 37.0658 18H40.2186C42.3075 18 44 19.6442 44 21.6735V24.0411C44 24.229 43.9226 24.4075 43.7872 24.539ZM35.7505 28.8702C36.1567 28.8702 36.4758 28.5508 36.4758 28.1656V24.4075C36.4758 24.0223 36.1567 23.7029 35.7505 23.7029C35.354 23.7029 35.0251 24.0223 35.0251 24.4075V28.1656C35.0251 28.5508 35.354 28.8702 35.7505 28.8702Z" fill="#F4753B"/>
<defs>
<filter id="filter0_d_1_20" x="0.755859" y="0.221069" width="67.1117" height="67.1117" filterUnits="userSpaceOnUse" color-interpolation-filters="sRGB">
<feFlood flood-opacity="0" result="BackgroundImageFix"/>
<feColorMatrix in="SourceAlpha" type="matrix" values="0 0 0 0 0 0 0 0 0 0 0 0 0 0 0 0 0 0 127 0" result="hardAlpha"/>
<feOffset dy="4"/>
<feGaussianBlur stdDeviation="2"/>
<feColorMatrix type="matrix" values="0 0 0 0 0.108333 0 0 0 0 0.100234 0 0 0 0 0.0985833 0 0 0 0.03 0"/>
<feBlend mode="normal" in2="BackgroundImageFix" result="effect1_dropShadow_1_20"/>
<feBlend mode="normal" in="SourceGraphic" in2="effect1_dropShadow_1_20" result="shape"/>
</filter>
</defs>
</svg>
