<svg width="22" height="49" viewBox="0 0 22 49" fill="none" xmlns="http://www.w3.org/2000/svg">
<path fill-rule="evenodd" clip-rule="evenodd" d="M6.55112 24.9777H16.329C19.9328 24.9777 21.9395 27.0543 21.9395 30.6127V42.6643C21.9395 46.281 19.9328 48.311 16.329 48.311H6.55112C3.00445 48.311 0.939453 46.281 0.939453 42.6643V30.6127C0.939453 27.0543 3.00445 24.9777 6.55112 24.9777ZM6.86607 30.4143V30.4027H10.3532C10.8561 30.4027 11.2644 30.811 11.2644 31.3115C11.2644 31.826 10.8561 32.2343 10.3532 32.2343H6.86607C6.36323 32.2343 5.95607 31.826 5.95607 31.3243C5.95607 30.8227 6.36323 30.4143 6.86607 30.4143ZM6.86607 37.5077H16.0127C16.5144 37.5077 16.9227 37.0993 16.9227 36.5976C16.9227 36.096 16.5144 35.6865 16.0127 35.6865H6.86607C6.36323 35.6865 5.95607 36.096 5.95607 36.5976C5.95607 37.0993 6.36323 37.5077 6.86607 37.5077ZM6.86618 42.8393H16.0128C16.4783 42.7927 16.8295 42.3948 16.8295 41.9293C16.8295 41.451 16.4783 41.0543 16.0128 41.0077H6.86618C6.51618 40.9727 6.17785 41.136 5.99118 41.4393C5.80451 41.731 5.80451 42.116 5.99118 42.4193C6.17785 42.711 6.51618 42.886 6.86618 42.8393Z" fill="black" fill-opacity="0.2"/>
</svg>
