<svg width="39" height="40" viewBox="0 0 39 40" fill="none" xmlns="http://www.w3.org/2000/svg">
<circle cx="19.6778" cy="20.1235" r="19.1742" fill="#F4753B"/>
<g clip-path="url(#clip0_1_4869)">
<path d="M24.2899 20.1516C23.9256 20.1516 23.6311 20.4257 23.6311 20.7633V25.6572C23.6311 25.9942 23.3359 26.2689 22.9724 26.2689H13.7493C13.3856 26.2689 13.0906 25.9942 13.0906 25.6572V17.0929C13.0906 16.7559 13.3856 16.4812 13.7493 16.4812H19.0196C19.3839 16.4812 19.6784 16.2072 19.6784 15.8696C19.6784 15.5318 19.3839 15.2578 19.0196 15.2578H13.7493C12.6597 15.2578 11.7729 16.0811 11.7729 17.0929V25.6572C11.7729 26.669 12.6597 27.4924 13.7493 27.4924H22.9724C24.062 27.4924 24.9487 26.669 24.9487 25.6572V20.7633C24.9487 20.425 24.6541 20.1516 24.2899 20.1516Z" fill="white"/>
<path d="M17.9496 19.5945C17.9035 19.6373 17.8725 19.6917 17.8594 19.7504L17.3936 21.9136C17.3719 22.0138 17.4062 22.1172 17.4838 22.19C17.5465 22.2482 17.6308 22.2793 17.7171 22.2793C17.7381 22.2793 17.76 22.2775 17.7817 22.2733L20.1105 21.8408C20.175 21.8285 20.2337 21.7998 20.2791 21.7569L25.4915 16.9169L23.1626 14.7545L17.9496 19.5945Z" fill="white"/>
<path d="M27.1019 13.2588C26.4596 12.6623 25.4148 12.6623 24.773 13.2588L23.8613 14.1054L26.1902 16.2679L27.1019 15.4212C27.4128 15.1331 27.5841 14.7489 27.5841 14.3403C27.5841 13.9317 27.4128 13.5475 27.1019 13.2588Z" fill="white"/>
</g>
<defs>
<clipPath id="clip0_1_4869">
<rect width="15.8109" height="14.6815" fill="white" transform="translate(11.7729 12.7827)"/>
</clipPath>
</defs>
</svg>
