<svg width="44" height="42" viewBox="0 0 44 42" fill="none" xmlns="http://www.w3.org/2000/svg">
<rect opacity="0.05" x="0.648438" y="0.234619" width="42.4998" height="41.3045" rx="10" fill="#F4753B"/>
<path opacity="0.4" d="M31.8983 24.8272C31.8983 27.6172 29.6583 29.8772 26.8683 29.8872H26.8583H16.9483C14.1683 29.8872 11.8983 27.6372 11.8983 24.8472V24.8372C11.8983 24.8372 11.9043 20.4112 11.9123 18.1852C11.9133 17.7672 12.3933 17.5332 12.7203 17.7932C15.0963 19.6782 19.3453 23.1152 19.3983 23.1602C20.1083 23.7292 21.0083 24.0502 21.9283 24.0502C22.8483 24.0502 23.7483 23.7292 24.4583 23.1492C24.5113 23.1142 28.6653 19.7802 31.0773 17.8642C31.4053 17.6032 31.8873 17.8372 31.8883 18.2542C31.8983 20.4632 31.8983 24.8272 31.8983 24.8272" fill="#F4753B"/>
<path d="M31.3744 14.5606C30.5084 12.9286 28.8044 11.8866 26.9284 11.8866H16.9484C15.0724 11.8866 13.3684 12.9286 12.5024 14.5606C12.3084 14.9256 12.4004 15.3806 12.7234 15.6386L20.1484 21.5776C20.6684 21.9976 21.2984 22.2066 21.9284 22.2066C21.9324 22.2066 21.9354 22.2066 21.9384 22.2066C21.9414 22.2066 21.9454 22.2066 21.9484 22.2066C22.5784 22.2066 23.2084 21.9976 23.7284 21.5776L31.1534 15.6386C31.4764 15.3806 31.5684 14.9256 31.3744 14.5606" fill="#F4753B"/>
</svg>
