<svg width="24" height="25" viewBox="0 0 24 25" fill="none" xmlns="http://www.w3.org/2000/svg">
<path opacity="0.4" fill-rule="evenodd" clip-rule="evenodd" d="M17.7366 6.49211C19.4439 7.80992 20.8976 9.74059 21.9415 12.1551C22.0195 12.3384 22.0195 12.5527 21.9415 12.7273C19.8537 17.5563 16.1366 20.446 12 20.446H11.9902C7.86341 20.446 4.14634 17.5563 2.05854 12.7273C1.98049 12.5527 1.98049 12.3384 2.05854 12.1551C4.14634 7.32508 7.86341 4.44604 11.9902 4.44604H12C14.0683 4.44604 16.0293 5.16362 17.7366 6.49211ZM8.09756 12.446C8.09756 14.5794 9.8439 16.3151 12 16.3151C14.1463 16.3151 15.8927 14.5794 15.8927 12.446C15.8927 10.303 14.1463 8.56726 12 8.56726C9.8439 8.56726 8.09756 10.303 8.09756 12.446Z" fill="#F4753B"/>
<path d="M14.4309 12.443C14.4309 13.7715 13.3382 14.8576 12.0016 14.8576C10.6553 14.8576 9.56262 13.7715 9.56262 12.443C9.56262 12.2782 9.58213 12.124 9.6114 11.9689H9.66018C10.7431 11.9689 11.6212 11.1155 11.6602 10.0479C11.7675 10.0295 11.8846 10.0188 12.0016 10.0188C13.3382 10.0188 14.4309 11.1049 14.4309 12.443Z" fill="#F4753B"/>
</svg>
