<svg width="82" height="78" viewBox="0 0 82 78" fill="none" xmlns="http://www.w3.org/2000/svg">
<g filter="url(#filter0_d_2_5)">
<rect x="7.71582" y="8.78052" width="59" height="55" rx="15" fill="white"/>
</g>
<path d="M37.4949 22.5032C29.9241 22.5032 23.7866 28.6407 23.7866 36.2115C23.7866 43.0016 28.7287 48.625 35.2087 49.714V39.0714H31.9018V35.2416H35.2087V32.4177C35.2087 29.1411 37.2099 27.3555 40.1333 27.3555C41.5334 27.3555 42.7367 27.4598 43.0859 27.5058V30.9307L41.0584 30.9317C39.4689 30.9317 39.1624 31.6869 39.1624 32.7954V35.2397H42.9551L42.4605 39.0695H39.1624V49.8055C45.9449 48.98 51.2031 43.2134 51.2031 36.2076C51.2031 28.6407 45.0656 22.5032 37.4949 22.5032Z" fill="#076FE5"/>
<defs>
<filter id="filter0_d_2_5" x="0.71582" y="0.780518" width="81" height="77" filterUnits="userSpaceOnUse" color-interpolation-filters="sRGB">
<feFlood flood-opacity="0" result="BackgroundImageFix"/>
<feColorMatrix in="SourceAlpha" type="matrix" values="0 0 0 0 0 0 0 0 0 0 0 0 0 0 0 0 0 0 127 0" result="hardAlpha"/>
<feMorphology radius="3" operator="dilate" in="SourceAlpha" result="effect1_dropShadow_2_5"/>
<feOffset dx="4" dy="3"/>
<feGaussianBlur stdDeviation="4"/>
<feColorMatrix type="matrix" values="0 0 0 0 0.295833 0 0 0 0 0.295833 0 0 0 0 0.295833 0 0 0 0.05 0"/>
<feBlend mode="normal" in2="BackgroundImageFix" result="effect1_dropShadow_2_5"/>
<feBlend mode="normal" in="SourceGraphic" in2="effect1_dropShadow_2_5" result="shape"/>
</filter>
</defs>
</svg>
