<svg width="29" height="28" viewBox="0 0 29 28" fill="none" xmlns="http://www.w3.org/2000/svg">
<path d="M14.4949 0.503174C6.92413 0.503174 0.786621 6.64068 0.786621 14.2115C0.786621 21.0016 5.72874 26.625 12.2087 27.7139V17.0714H8.90182V13.2416H12.2087V10.4177C12.2087 7.14107 14.2099 5.35552 17.1333 5.35552C18.5334 5.35552 19.7367 5.45985 20.0859 5.5058V8.93072L18.0584 8.9317C16.4689 8.9317 16.1624 9.68687 16.1624 10.7954V13.2397H19.9551L19.4605 17.0695H16.1624V27.8055C22.9449 26.98 28.2031 21.2134 28.2031 14.2076C28.2031 6.64068 22.0656 0.503174 14.4949 0.503174Z" fill="#076FE5"/>
</svg>
