<svg width="44" height="42" viewBox="0 0 44 42" fill="none" xmlns="http://www.w3.org/2000/svg">
<path fill-rule="evenodd" clip-rule="evenodd" d="M17.6672 17.5656H26.1296C28.4871 17.5656 30.3984 19.4348 30.3984 21.7403V26.6771C30.3984 28.9826 28.4871 30.8518 26.1296 30.8518H17.6672C15.3098 30.8518 13.3984 28.9826 13.3984 26.6771V21.7403C13.3984 19.4348 15.3098 17.5656 17.6672 17.5656ZM21.8934 26.1813C22.3913 26.1813 22.7876 25.7937 22.7876 25.3068V23.1007C22.7876 22.6237 22.3913 22.2362 21.8934 22.2362C21.4056 22.2362 21.0093 22.6237 21.0093 23.1007V25.3068C21.0093 25.7937 21.4056 26.1813 21.8934 26.1813Z" fill="#F4753B"/>
<path opacity="0.4" d="M27.4213 16.2478V17.7185C27.0656 17.6191 26.6896 17.5694 26.3035 17.5694H25.643V16.2478C25.643 14.2305 23.9664 12.5908 21.9036 12.5908C19.8409 12.5908 18.1642 14.2206 18.1541 16.2279V17.5694H17.5037C17.1074 17.5694 16.7315 17.6191 16.3758 17.7284V16.2478C16.386 13.2666 18.8552 10.8518 21.8833 10.8518C24.952 10.8518 27.4213 13.2666 27.4213 16.2478" fill="#F4753B"/>
<rect opacity="0.05" x="0.648438" y="0.199463" width="42.4998" height="41.3045" rx="10" fill="#F4753B"/>
</svg>
