<svg width="25" height="49" viewBox="0 0 25 49" fill="none" xmlns="http://www.w3.org/2000/svg">
<g filter="url(#filter0_d_3_50)">
<path d="M18.3233 6.61602C18.3233 8.17638 17.7035 9.67283 16.6002 10.7762C15.4968 11.8795 14.0004 12.4994 12.44 12.4994C10.8796 12.4994 9.38318 11.8795 8.27983 10.7762C7.17649 9.67283 6.55664 8.17638 6.55664 6.61602L12.44 6.61602H18.3233Z" fill="#F4753B"/>
</g>
<path fill-rule="evenodd" clip-rule="evenodd" d="M7.55112 24.9777H17.329C20.9328 24.9777 22.9395 27.0543 22.9395 30.6127V42.6643C22.9395 46.281 20.9328 48.311 17.329 48.311H7.55112C4.00445 48.311 1.93945 46.281 1.93945 42.6643V30.6127C1.93945 27.0543 4.00445 24.9777 7.55112 24.9777ZM7.86607 30.4143V30.4027H11.3532C11.8561 30.4027 12.2644 30.811 12.2644 31.3115C12.2644 31.826 11.8561 32.2343 11.3532 32.2343H7.86607C7.36323 32.2343 6.95607 31.826 6.95607 31.3243C6.95607 30.8227 7.36323 30.4143 7.86607 30.4143ZM7.86607 37.5077H17.0127C17.5144 37.5077 17.9227 37.0993 17.9227 36.5976C17.9227 36.096 17.5144 35.6865 17.0127 35.6865H7.86607C7.36323 35.6865 6.95607 36.096 6.95607 36.5976C6.95607 37.0993 7.36323 37.5077 7.86607 37.5077ZM7.86618 42.8393H17.0128C17.4783 42.7927 17.8295 42.3948 17.8295 41.9293C17.8295 41.451 17.4783 41.0543 17.0128 41.0077H7.86618C7.51618 40.9727 7.17785 41.136 6.99118 41.4393C6.80451 41.731 6.80451 42.116 6.99118 42.4193C7.17785 42.711 7.51618 42.886 7.86618 42.8393Z" fill="#F4753B"/>
<defs>
<filter id="filter0_d_3_50" x="0.556641" y="4.61602" width="23.7667" height="17.8834" filterUnits="userSpaceOnUse" color-interpolation-filters="sRGB">
<feFlood flood-opacity="0" result="BackgroundImageFix"/>
<feColorMatrix in="SourceAlpha" type="matrix" values="0 0 0 0 0 0 0 0 0 0 0 0 0 0 0 0 0 0 127 0" result="hardAlpha"/>
<feOffset dy="4"/>
<feGaussianBlur stdDeviation="3"/>
<feColorMatrix type="matrix" values="0 0 0 0 0.956863 0 0 0 0 0.458824 0 0 0 0 0.231373 0 0 0 0.39 0"/>
<feBlend mode="normal" in2="BackgroundImageFix" result="effect1_dropShadow_3_50"/>
<feBlend mode="normal" in="SourceGraphic" in2="effect1_dropShadow_3_50" result="shape"/>
</filter>
</defs>
</svg>
