<svg width="24" height="49" viewBox="0 0 24 49" fill="none" xmlns="http://www.w3.org/2000/svg">
<g filter="url(#filter0_d_3_58)">
<path d="M17.8834 6.46856C17.8834 8.02892 17.2636 9.52537 16.1602 10.6287C15.0569 11.7321 13.5604 12.3519 12.0001 12.3519C10.4397 12.3519 8.94324 11.7321 7.83989 10.6287C6.73655 9.52537 6.1167 8.02892 6.1167 6.46856L12.0001 6.46856H17.8834Z" fill="#F4753B"/>
</g>
<path fill-rule="evenodd" clip-rule="evenodd" d="M18.1765 31.0031C18.1765 34.4296 15.4291 37.1772 12.0001 37.1772C8.57236 37.1772 5.82383 34.4296 5.82383 31.0031C5.82383 27.5766 8.57236 24.8302 12.0001 24.8302C15.4291 24.8302 18.1765 27.5766 18.1765 31.0031ZM12.0001 48.1635C6.93952 48.1635 2.66675 47.341 2.66675 44.1677C2.66675 40.9931 6.96636 40.1998 12.0001 40.1998C17.0618 40.1998 21.3334 41.0223 21.3334 44.1957C21.3334 47.3702 17.0338 48.1635 12.0001 48.1635Z" fill="#F4753B"/>
<defs>
<filter id="filter0_d_3_58" x="0.116699" y="4.46856" width="23.7667" height="17.8834" filterUnits="userSpaceOnUse" color-interpolation-filters="sRGB">
<feFlood flood-opacity="0" result="BackgroundImageFix"/>
<feColorMatrix in="SourceAlpha" type="matrix" values="0 0 0 0 0 0 0 0 0 0 0 0 0 0 0 0 0 0 127 0" result="hardAlpha"/>
<feOffset dy="4"/>
<feGaussianBlur stdDeviation="3"/>
<feColorMatrix type="matrix" values="0 0 0 0 0.956863 0 0 0 0 0.458824 0 0 0 0 0.231373 0 0 0 0.39 0"/>
<feBlend mode="normal" in2="BackgroundImageFix" result="effect1_dropShadow_3_58"/>
<feBlend mode="normal" in="SourceGraphic" in2="effect1_dropShadow_3_58" result="shape"/>
</filter>
</defs>
</svg>
