<svg width="82" height="78" viewBox="0 0 82 78" fill="none" xmlns="http://www.w3.org/2000/svg">
<g filter="url(#filter0_d_3_2)">
<rect x="7.28418" y="8.78052" width="59" height="55" rx="15" fill="white"/>
</g>
<g clip-path="url(#clip0_3_2)">
<path d="M49.2648 33.9333L38.2518 33.9328C37.7655 33.9328 37.3713 34.3269 37.3713 34.8132V38.3314C37.3713 38.8176 37.7655 39.2119 38.2517 39.2119H44.4536C43.7745 40.9743 42.507 42.4503 40.8898 43.3881L43.5343 47.9659C47.7764 45.5126 50.2843 41.2079 50.2843 36.3891C50.2843 35.703 50.2337 35.2125 50.1326 34.6602C50.0557 34.2406 49.6914 33.9333 49.2648 33.9333Z" fill="#167EE6"/>
<path d="M36.7841 44.4977C33.749 44.4977 31.0994 42.8395 29.6764 40.3856L25.0987 43.0241C27.4283 47.0615 31.7922 49.7804 36.7841 49.7804C39.2329 49.7804 41.5436 49.121 43.5341 47.972V47.9657L40.8896 43.3878C39.68 44.0894 38.2802 44.4977 36.7841 44.4977Z" fill="#12B347"/>
<path d="M43.5342 47.9722V47.9659L40.8897 43.388C39.6801 44.0895 38.2804 44.4979 36.7842 44.4979V49.7805C39.233 49.7805 41.5438 49.1212 43.5342 47.9722Z" fill="#0F993E"/>
<path d="M28.5668 36.2804C28.5668 34.7843 28.9751 33.3847 29.6765 32.1751L25.0988 29.5366C23.9435 31.5209 23.2842 33.8253 23.2842 36.2804C23.2842 38.7355 23.9435 41.0398 25.0988 43.0241L29.6765 40.3856C28.9751 39.176 28.5668 37.7764 28.5668 36.2804Z" fill="#FFD500"/>
<path d="M36.7841 28.0631C38.7633 28.0631 40.5812 28.7664 42.0012 29.9362C42.3515 30.2248 42.8607 30.2039 43.1816 29.883L45.6743 27.3903C46.0384 27.0262 46.0124 26.4303 45.6235 26.0929C43.2444 24.0289 40.1489 22.7805 36.7841 22.7805C31.7922 22.7805 27.4283 25.4993 25.0987 29.5368L29.6764 32.1753C31.0994 29.7214 33.749 28.0631 36.7841 28.0631Z" fill="#FF4B26"/>
<path d="M42.0013 29.9362C42.3516 30.2248 42.8608 30.2039 43.1817 29.883L45.6744 27.3903C46.0384 27.0262 46.0125 26.4303 45.6236 26.0929C43.2445 24.0288 40.149 22.7805 36.7842 22.7805V28.0631C38.7633 28.0631 40.5813 28.7664 42.0013 29.9362Z" fill="#D93F21"/>
</g>
<defs>
<filter id="filter0_d_3_2" x="0.28418" y="0.780518" width="81" height="77" filterUnits="userSpaceOnUse" color-interpolation-filters="sRGB">
<feFlood flood-opacity="0" result="BackgroundImageFix"/>
<feColorMatrix in="SourceAlpha" type="matrix" values="0 0 0 0 0 0 0 0 0 0 0 0 0 0 0 0 0 0 127 0" result="hardAlpha"/>
<feMorphology radius="3" operator="dilate" in="SourceAlpha" result="effect1_dropShadow_3_2"/>
<feOffset dx="4" dy="3"/>
<feGaussianBlur stdDeviation="4"/>
<feColorMatrix type="matrix" values="0 0 0 0 0.295833 0 0 0 0 0.295833 0 0 0 0 0.295833 0 0 0 0.05 0"/>
<feBlend mode="normal" in2="BackgroundImageFix" result="effect1_dropShadow_3_2"/>
<feBlend mode="normal" in="SourceGraphic" in2="effect1_dropShadow_3_2" result="shape"/>
</filter>
<clipPath id="clip0_3_2">
<rect width="27" height="27" fill="white" transform="translate(23.2842 22.7805)"/>
</clipPath>
</defs>
</svg>
