<svg width="28" height="28" viewBox="0 0 28 28" fill="none" xmlns="http://www.w3.org/2000/svg">
<g clip-path="url(#clip0_1_1463)">
<path d="M26.2646 11.9333L15.2516 11.9327C14.7653 11.9327 14.3711 12.3269 14.3711 12.8132V16.3314C14.3711 16.8176 14.7653 17.2118 15.2515 17.2118H21.4534C20.7743 18.9743 19.5068 20.4502 17.8896 21.3881L20.5341 25.9659C24.7762 23.5125 27.2841 19.2079 27.2841 14.3891C27.2841 13.703 27.2335 13.2125 27.1324 12.6602C27.0555 12.2406 26.6912 11.9333 26.2646 11.9333Z" fill="#167EE6"/>
<path d="M13.784 22.4978C10.7489 22.4978 8.09933 20.8395 6.67629 18.3856L2.09863 21.0241C4.42817 25.0616 8.79215 27.7804 13.784 27.7804C16.2328 27.7804 18.5435 27.1211 20.534 25.972V25.9658L17.8895 21.3879C16.6799 22.0895 15.2801 22.4978 13.784 22.4978Z" fill="#12B347"/>
<path d="M20.5342 25.9722V25.9659L17.8897 21.3881C16.6801 22.0896 15.2804 22.498 13.7842 22.498V27.7806C16.233 27.7806 18.5438 27.1212 20.5342 25.9722Z" fill="#0F993E"/>
<path d="M5.56679 14.2803C5.56679 12.7843 5.97506 11.3847 6.67648 10.1751L2.09882 7.53662C0.943465 9.52086 0.28418 11.8252 0.28418 14.2803C0.28418 16.7354 0.943465 19.0398 2.09882 21.0241L6.67648 18.3855C5.97506 17.176 5.56679 15.7764 5.56679 14.2803Z" fill="#FFD500"/>
<path d="M13.784 6.06313C15.7632 6.06313 17.5811 6.7664 19.0011 7.9362C19.3514 8.22477 19.8606 8.20394 20.1815 7.88305L22.6742 5.39029C23.0383 5.02622 23.0123 4.43026 22.6234 4.09287C20.2443 2.0289 17.1488 0.780518 13.784 0.780518C8.79215 0.780518 4.42817 3.49934 2.09863 7.53679L6.67629 10.1753C8.09933 7.72142 10.7489 6.06313 13.784 6.06313Z" fill="#FF4B26"/>
<path d="M19.0013 7.9362C19.3516 8.22477 19.8608 8.20394 20.1817 7.88305L22.6744 5.39029C23.0384 5.02622 23.0125 4.43026 22.6236 4.09287C20.2445 2.02885 17.149 0.780518 13.7842 0.780518V6.06313C15.7633 6.06313 17.5813 6.7664 19.0013 7.9362Z" fill="#D93F21"/>
</g>
<defs>
<clipPath id="clip0_1_1463">
<rect width="27" height="27" fill="white" transform="translate(0.28418 0.780518)"/>
</clipPath>
</defs>
</svg>
