<svg width="17" height="15" viewBox="0 0 17 15" fill="none" xmlns="http://www.w3.org/2000/svg">
<g opacity="0.5">
<path d="M12.2132 8.60623C12.3559 8.2249 12.4283 7.82085 12.4269 7.41369C12.4269 6.50965 12.0678 5.64264 11.4285 5.00339C10.7893 4.36413 9.92225 4.005 9.01821 4.005C8.61607 4.00547 8.21725 4.07783 7.84058 4.21867L8.64057 5.04351C8.76218 5.02405 8.88512 5.01409 9.00827 5.0137C9.64749 5.01236 10.2613 5.264 10.7156 5.71367C11.1699 6.16333 11.4279 6.77449 11.4331 7.41369C11.4327 7.53684 11.4227 7.65978 11.4033 7.78139L12.2132 8.60623Z" fill="#231F20"/>
<path d="M16.7351 7.18023C15.0605 4.08459 12.1239 2.2113 8.87423 2.2113C7.98943 2.21338 7.11059 2.35594 6.27051 2.63366L7.07051 3.43863C7.65975 3.28635 8.26563 3.2079 8.87423 3.20509C11.6717 3.20509 14.2158 4.76533 15.7313 7.3939C15.1754 8.3691 14.4384 9.22921 13.5599 9.92805L14.2655 10.6336C15.2822 9.81344 16.1266 8.8002 16.75 7.65228L16.8792 7.41377L16.7351 7.18023Z" fill="#231F20"/>
<path d="M2.11617 1.34181L4.33231 3.55795C2.93153 4.45987 1.78668 5.7074 1.0081 7.1803L0.878906 7.41384L1.0081 7.65235C2.68263 10.748 5.61926 12.6213 8.86894 12.6213C10.1373 12.621 11.3893 12.3339 12.531 11.7815L15.0155 14.266L15.8851 13.5207L2.96586 0.60144L2.11617 1.34181ZM6.96087 6.18652L10.2652 9.49085C9.89186 9.72195 9.46206 9.84574 9.02298 9.84862C8.70394 9.84862 8.38805 9.78554 8.09348 9.663C7.79891 9.54046 7.53148 9.36088 7.30658 9.13459C7.08168 8.9083 6.90375 8.63978 6.78302 8.34446C6.66229 8.04915 6.60115 7.73288 6.60311 7.41384C6.60871 6.97984 6.73239 6.55555 6.96087 6.18652ZM6.24038 5.46602C5.7755 6.12162 5.55761 6.92057 5.62528 7.72141C5.69296 8.52225 6.04183 9.27331 6.61012 9.84161C7.17842 10.4099 7.92948 10.7588 8.73032 10.8264C9.53115 10.8941 10.3301 10.6762 10.9857 10.2113L11.7807 11.0064C10.8604 11.3998 9.86985 11.6026 8.86894 11.6026C6.07144 11.6026 3.52734 10.0424 2.01182 7.41384C2.73913 6.126 3.78659 5.04774 5.05281 4.28342L6.24038 5.46602Z" fill="#231F20"/>
</g>
</svg>
