<svg width="20" height="18" viewBox="0 0 20 18" fill="none" xmlns="http://www.w3.org/2000/svg">
<path fill-rule="evenodd" clip-rule="evenodd" d="M7.80327 12.1041C8.42774 12.5275 9.18882 12.7834 9.99868 12.7834C12.1453 12.7834 13.8919 11.0212 13.8919 8.85526C13.8919 8.03811 13.6382 7.2702 13.2186 6.64011L12.1551 7.71322C12.3307 8.04796 12.4283 8.44176 12.4283 8.85526C12.4283 10.204 11.3354 11.3067 9.99868 11.3067C9.58887 11.3067 9.19858 11.2082 8.86683 11.031L7.80327 12.1041ZM16.4288 3.40108C17.8436 4.70063 19.0438 6.45305 19.9415 8.5599C20.0195 8.74696 20.0195 8.96355 19.9415 9.14076C17.8534 14.0436 14.1358 16.9774 9.99868 16.9774H9.98893C8.10575 16.9774 6.30063 16.3572 4.71018 15.225L2.81725 17.135C2.67089 17.2826 2.4855 17.3516 2.30011 17.3516C2.11472 17.3516 1.91957 17.2826 1.78297 17.135C1.53903 16.8888 1.5 16.495 1.69515 16.2095L1.72442 16.1702L16.1556 1.60927C16.1751 1.58958 16.1946 1.56989 16.2044 1.5502L16.2044 1.55019C16.2239 1.5305 16.2434 1.51082 16.2532 1.49113L17.1704 0.565693C17.4631 0.280186 17.9217 0.280186 18.2046 0.565693C18.4974 0.851201 18.4974 1.32376 18.2046 1.60927L16.4288 3.40108ZM6.09836 8.85909C6.09836 9.11507 6.12764 9.37104 6.16667 9.60732L2.55643 13.25C1.5807 12.108 0.731804 10.7297 0.0585443 9.1446C-0.0195148 8.96739 -0.0195148 8.7508 0.0585443 8.56374C2.14662 3.66089 5.86419 0.736899 9.99156 0.736899H10.0013C11.3966 0.736899 12.7529 1.07163 14.0018 1.70172L10.7429 4.98998C10.5087 4.9506 10.255 4.92106 10.0013 4.92106C7.84494 4.92106 6.09836 6.68333 6.09836 8.85909Z" fill="#F4753B"/>
</svg>
