<svg width="23" height="49" viewBox="0 0 23 49" fill="none" xmlns="http://www.w3.org/2000/svg">
<path d="M7.74057 46.9022V43.3349C7.74057 42.4242 8.4842 41.686 9.40151 41.686H12.7547C13.1952 41.686 13.6177 41.8597 13.9292 42.169C14.2407 42.4782 14.4156 42.8976 14.4156 43.3349V46.9022C14.4129 47.2808 14.5624 47.6449 14.8311 47.9135C15.0998 48.1822 15.4654 48.3333 15.8468 48.3333H18.1345C19.2029 48.3361 20.2285 47.9167 20.985 47.1676C21.7415 46.4186 22.1667 45.4015 22.1667 44.3408V34.178C22.1666 33.3212 21.7841 32.5085 21.1221 31.9588L13.3397 25.7885C11.9859 24.7067 10.0463 24.7416 8.73296 25.8715L1.12818 31.9588C0.434864 32.4923 0.0204777 33.3074 0 34.178V44.3304C0 46.5412 1.80528 48.3333 4.0322 48.3333H6.26767C7.05976 48.3333 7.7035 47.6989 7.70924 46.9126L7.74057 46.9022Z" fill="#231F20"/>
</svg>
