<svg width="233" height="21" viewBox="0 0 233 21" fill="none" xmlns="http://www.w3.org/2000/svg">
<path opacity="0.5" d="M110.393 8.66138C110.393 9.2395 110.486 9.77336 110.674 10.2629C110.867 10.7525 111.122 11.177 111.439 11.5364C111.762 11.8905 112.132 12.1666 112.549 12.3645C112.965 12.5624 113.393 12.6614 113.83 12.6614C114.268 12.6614 114.695 12.5624 115.111 12.3645C115.528 12.1666 115.895 11.8905 116.213 11.5364C116.531 11.177 116.786 10.7525 116.979 10.2629C117.171 9.76815 117.268 9.23429 117.268 8.66138C117.268 8.08325 117.171 7.5494 116.979 7.05981C116.786 6.57023 116.531 6.14836 116.213 5.79419C115.895 5.43481 115.528 5.15617 115.111 4.95825C114.695 4.76034 114.268 4.66138 113.83 4.66138C113.393 4.66138 112.965 4.76034 112.549 4.95825C112.132 5.15617 111.762 5.43481 111.439 5.79419C111.122 6.14836 110.867 6.57023 110.674 7.05981C110.486 7.5494 110.393 8.08325 110.393 8.66138ZM118.549 8.66138C118.549 9.38534 118.419 10.0572 118.158 10.677C117.898 11.2968 117.551 11.8385 117.119 12.302C116.687 12.7655 116.184 13.1275 115.611 13.3879C115.044 13.6484 114.45 13.7786 113.83 13.7786C113.21 13.7786 112.614 13.6484 112.041 13.3879C111.473 13.1275 110.973 12.7655 110.541 12.302C110.109 11.8385 109.762 11.2968 109.502 10.677C109.242 10.0572 109.111 9.38534 109.111 8.66138C109.111 7.94784 109.242 7.27856 109.502 6.65356C109.762 6.02856 110.109 5.48429 110.541 5.02075C110.973 4.55721 111.473 4.19523 112.041 3.93481C112.614 3.6744 113.21 3.54419 113.83 3.54419C114.45 3.54419 115.044 3.6744 115.611 3.93481C116.184 4.19523 116.687 4.55721 117.119 5.02075C117.551 5.48429 117.898 6.02856 118.158 6.65356C118.419 7.27856 118.549 7.94784 118.549 8.66138ZM123.588 7.62231H123.268C122.7 7.62231 122.239 7.80461 121.885 8.16919C121.531 8.52856 121.354 9.01294 121.354 9.62231V13.7004H120.15V6.49731H121.033L121.354 7.302C121.505 7.14054 121.679 6.99731 121.877 6.87231C122.059 6.75252 122.278 6.64836 122.533 6.55981C122.788 6.46606 123.088 6.41919 123.432 6.41919H123.588V7.62231Z" fill="#231F20"/>
<line x1="0.695801" y1="10.2004" x2="89.4314" y2="10.2004" stroke="black" stroke-opacity="0.05"/>
<line x1="144.025" y1="10.2004" x2="232.761" y2="10.2004" stroke="black" stroke-opacity="0.05"/>
</svg>
