<svg width="21" height="21" viewBox="0 0 21 21" fill="none" xmlns="http://www.w3.org/2000/svg">
<g opacity="0.5">
<path opacity="0.4" d="M18.5636 10.961C18.5636 15.5635 14.8328 19.2943 10.2303 19.2943C5.62781 19.2943 1.89697 15.5635 1.89697 10.961C1.89697 6.35929 5.62781 2.62762 10.2303 2.62762C14.8328 2.62762 18.5636 6.35929 18.5636 10.961" fill="#231F20"/>
<path d="M13.4469 8.21517L12.0969 12.4818C12.0469 12.6568 11.9052 12.7985 11.7302 12.8493L7.48023 14.1818C7.1969 14.2743 6.9219 13.9985 7.01357 13.7152L8.3469 9.44017C8.3969 9.26517 8.53857 9.13184 8.71357 9.0735L12.9802 7.74017C13.2719 7.6485 13.5386 7.9235 13.4469 8.21517" fill="#231F20"/>
</g>
</svg>
