<svg width="15" height="18" viewBox="0 0 15 18" fill="none" xmlns="http://www.w3.org/2000/svg">
<path d="M7.79068 0.420329L8.00332 0.424238C11.8166 0.550055 14.8629 3.69693 14.85 7.54753L14.8498 7.63281C14.8064 9.9297 13.6572 12.1913 11.7504 14.2097C10.8098 15.1895 9.75934 16.057 8.62005 16.7947L8.62835 16.7886L8.58819 16.8227C8.13276 17.1499 7.52924 17.1733 7.05266 16.8928L6.94505 16.8227L6.89478 16.7832L6.55024 16.5512C5.11928 15.5648 3.84485 14.3679 2.77245 13.0044L2.50859 12.66C1.38508 11.1876 0.74719 9.40039 0.68335 7.52554L0.687206 7.28813C0.812597 3.46312 3.94982 0.407323 7.79068 0.420329ZM7.7864 1.68488L7.58623 1.68759C4.46278 1.78281 1.95467 4.34717 1.94398 7.50355L1.95989 7.80107C2.06814 9.28482 2.606 10.7072 3.51365 11.8968C4.64049 13.4062 6.02333 14.705 7.59891 15.7337L7.66742 15.7854C7.72438 15.8348 7.80887 15.8348 7.86583 15.7854L7.93632 15.7324C8.99397 15.0475 9.96912 14.2422 10.8389 13.3363C12.5446 11.5307 13.5528 9.54653 13.5893 7.62084L13.5866 7.34459C13.4917 4.21151 10.9352 1.69565 7.7864 1.68488ZM7.76662 4.92136C9.25695 4.92136 10.4651 6.13324 10.4651 7.62817C10.4651 9.1231 9.25695 10.335 7.76662 10.335C6.2763 10.335 5.06815 9.1231 5.06815 7.62817C5.06815 6.13324 6.2763 4.92136 7.76662 4.92136ZM7.76662 6.18588C6.97252 6.18588 6.32878 6.83162 6.32878 7.62817C6.32878 8.42472 6.97252 9.07046 7.76662 9.07046C8.56072 9.07046 9.20447 8.42472 9.20447 7.62817C9.20447 6.83162 8.56072 6.18588 7.76662 6.18588Z" fill="#231F20"/>
</svg>
