<svg width="24" height="48" viewBox="0 0 24 48" fill="none" xmlns="http://www.w3.org/2000/svg">
<path fill-rule="evenodd" clip-rule="evenodd" d="M18.0734 26.1162C19.6379 26.1162 21.1429 26.7345 22.25 27.844C23.3584 28.9512 23.9779 30.4445 23.9779 32.0079V41.2245C23.9779 44.4795 21.3295 47.1162 18.0734 47.1162H6.54786C3.2917 47.1162 0.644531 44.4795 0.644531 41.2245V32.0079C0.644531 28.7529 3.28003 26.1162 6.54786 26.1162H18.0734ZM19.9297 33.7462L20.023 33.6529C20.3018 33.3145 20.3018 32.8245 20.0102 32.4862C19.848 32.3124 19.6252 32.2062 19.393 32.1829C19.148 32.17 18.9147 32.2529 18.7385 32.4162L13.478 36.6162C12.8013 37.1774 11.8318 37.1774 11.1447 36.6162L5.89465 32.4162C5.53182 32.1479 5.03015 32.1829 4.72799 32.4979C4.41299 32.8129 4.37799 33.3145 4.64515 33.6645L4.79799 33.8162L10.1063 37.9579C10.7597 38.4712 11.5518 38.7512 12.3813 38.7512C13.2085 38.7512 14.0147 38.4712 14.6668 37.9579L19.9297 33.7462Z" fill="#231F20"/>
</svg>
