<svg width="44" height="42" viewBox="0 0 44 42" fill="none" xmlns="http://www.w3.org/2000/svg">
<rect opacity="0.05" x="0.648438" y="0.199463" width="42.4998" height="41.3045" rx="10" fill="#F4753B"/>
<g opacity="0.5">
<path fill-rule="evenodd" clip-rule="evenodd" d="M17.6672 14.5656H26.1296C28.4871 14.5656 30.3984 16.4348 30.3984 18.7403V23.6771C30.3984 25.9826 28.4871 27.8518 26.1296 27.8518H17.6672C15.3098 27.8518 13.3984 25.9826 13.3984 23.6771V18.7403C13.3984 16.4348 15.3098 14.5656 17.6672 14.5656ZM21.8934 23.1813C22.3913 23.1813 22.7876 22.7937 22.7876 22.3068V20.1007C22.7876 19.6237 22.3913 19.2362 21.8934 19.2362C21.4056 19.2362 21.0093 19.6237 21.0093 20.1007V22.3068C21.0093 22.7937 21.4056 23.1813 21.8934 23.1813Z" fill="#F4753B"/>
<path opacity="0.4" d="M27.4213 13.2478V14.7185C27.0656 14.6191 26.6896 14.5694 26.3035 14.5694H25.643V13.2478C25.643 11.2305 23.9664 9.59083 21.9036 9.59083C19.8409 9.59083 18.1642 11.2206 18.1541 13.2279V14.5694H17.5037C17.1074 14.5694 16.7315 14.6191 16.3758 14.7284V13.2478C16.386 10.2666 18.8552 7.85181 21.8833 7.85181C24.952 7.85181 27.4213 10.2666 27.4213 13.2478" fill="#F4753B"/>
</g>
</svg>
