<svg width="375" height="813" viewBox="0 0 375 813" fill="none" xmlns="http://www.w3.org/2000/svg">
<g clip-path="url(#clip0_0_7)">
<rect width="375" height="812" transform="translate(0 0.0880127)" fill="#FBFBFD"/>
<path d="M99.8145 481.496C98.5305 481.002 97.6895 479.962 97.6895 478.578C97.6895 476.895 99.0715 475.51 100.753 475.51C101.249 475.51 101.643 475.61 101.992 475.758C104.166 476.747 106.491 477.341 109.311 477.341C114.456 477.341 116.878 474.867 116.878 470.119V468.832C114.655 471.505 112.229 473.137 108.222 473.137C102.04 473.137 96.4495 468.636 96.4495 460.77V460.67C96.4495 452.756 102.138 448.304 108.222 448.304C112.326 448.304 114.753 450.034 116.781 452.262V452.211C116.781 450.183 118.464 448.502 120.54 448.502C122.616 448.502 124.299 450.183 124.299 452.262V469.326C124.299 474.075 123.161 477.537 120.934 479.764C118.463 482.237 114.655 483.326 109.51 483.326C105.995 483.326 102.931 482.733 99.8145 481.496ZM116.879 460.769V460.669C116.879 457.059 114.059 454.536 110.401 454.536C106.739 454.536 103.968 457.058 103.968 460.669V460.769C103.968 464.429 106.739 466.904 110.401 466.904C114.058 466.904 116.879 464.381 116.879 460.769Z" fill="#231F20"/>
<path d="M129.535 452.262C129.535 450.183 131.218 448.502 133.294 448.502C135.375 448.502 137.057 450.183 137.057 452.262V453.449C138.142 450.877 139.926 448.503 142.15 448.503C144.474 448.503 145.812 450.035 145.812 452.163C145.812 454.142 144.527 455.329 142.991 455.677C139.183 456.567 137.057 459.485 137.057 464.826V471.85C137.057 473.927 135.375 475.61 133.294 475.61C131.217 475.61 129.535 473.927 129.535 471.85V452.262Z" fill="#231F20"/>
<path d="M145.905 467.694V467.594C145.905 461.807 150.31 459.137 156.593 459.137C159.263 459.137 161.194 459.582 163.071 460.224V459.78C163.071 456.663 161.141 454.931 157.382 454.931C155.305 454.931 153.623 455.228 152.188 455.675C151.745 455.822 151.448 455.871 151.099 455.871C149.368 455.871 147.986 454.536 147.986 452.805C147.986 451.468 148.827 450.33 150.014 449.886C152.388 448.995 154.96 448.501 158.472 448.501C162.576 448.501 165.547 449.589 167.425 451.468C169.404 453.447 170.294 456.365 170.294 459.928V471.997C170.294 474.025 168.661 475.608 166.632 475.608C164.458 475.608 163.023 474.074 163.023 472.491V472.442C161.194 474.47 158.67 475.805 155.009 475.805C150.013 475.807 145.905 472.937 145.905 467.694ZM163.168 465.963V464.628C161.884 464.035 160.201 463.639 158.373 463.639C155.158 463.639 153.179 464.925 153.179 467.299V467.398C153.179 469.426 154.861 470.613 157.283 470.613C160.795 470.612 163.168 468.685 163.168 465.963Z" fill="#231F20"/>
<path d="M175.284 452.262C175.284 450.183 176.966 448.502 179.043 448.502C181.12 448.502 182.802 450.183 182.802 452.262V452.559C184.533 450.331 186.76 448.304 190.569 448.304C196.258 448.304 199.571 452.063 199.571 458.149V471.85C199.571 473.927 197.888 475.61 195.811 475.61C193.735 475.61 192.052 473.927 192.052 471.85V460.522C192.052 456.96 190.369 455.131 187.5 455.131C184.631 455.131 182.802 456.96 182.802 460.522V471.85C182.802 473.927 181.12 475.61 179.043 475.61C176.966 475.61 175.284 473.927 175.284 471.85V452.262Z" fill="#231F20"/>
<path d="M205.849 467.794V455.229H205.601C203.821 455.229 202.386 453.794 202.386 452.014C202.386 450.234 203.821 448.799 205.601 448.799H205.849V445.485C205.849 443.407 207.531 441.726 209.608 441.726C211.685 441.726 213.367 443.407 213.367 445.485V448.799H216.679C218.463 448.799 219.898 450.234 219.898 452.014C219.898 453.794 218.463 455.229 216.679 455.229H213.367V466.557C213.367 468.288 214.107 469.129 215.79 469.129C216.038 469.129 216.533 469.08 216.68 469.08C218.363 469.08 219.797 470.464 219.797 472.195C219.797 473.532 218.907 474.619 217.866 475.015C216.484 475.56 215.196 475.757 213.566 475.757C208.966 475.758 205.849 473.927 205.849 467.794Z" fill="#231F20"/>
<path d="M223.553 442.468C223.553 440.291 225.381 438.954 227.759 438.954C230.132 438.954 231.961 440.291 231.961 442.468V442.566C231.961 444.744 230.132 446.128 227.759 446.128C225.381 446.128 223.553 444.744 223.553 442.566V442.468ZM223.999 452.262C223.999 450.183 225.678 448.502 227.759 448.502C229.835 448.502 231.518 450.183 231.518 452.262V471.85C231.518 473.927 229.835 475.61 227.759 475.61C225.678 475.61 223.999 473.927 223.999 471.85V452.262Z" fill="#231F20"/>
<path d="M238.387 455.228H238.09C236.359 455.228 234.977 453.893 234.977 452.162C234.977 450.431 236.359 449.045 238.09 449.045H238.387V447.364C238.387 444.444 239.13 442.319 240.516 440.933C241.902 439.547 243.93 438.856 246.6 438.856C247.787 438.856 248.827 438.905 249.668 439.053C250.952 439.25 252.24 440.388 252.24 442.071C252.24 443.754 250.854 445.188 249.172 445.188H248.529C246.799 445.188 245.806 446.078 245.806 448.057V449.095H249.074C250.805 449.095 252.187 450.43 252.187 452.161C252.187 453.892 250.805 455.227 249.074 455.227H245.908V471.848C245.908 473.925 244.225 475.608 242.145 475.608C240.068 475.608 238.386 473.925 238.386 471.848V455.228H238.387Z" fill="#231F20"/>
<path d="M255.894 482.683C254.804 482.287 253.52 481.397 253.52 479.568C253.52 477.737 254.955 476.5 256.487 476.5C257.081 476.5 257.429 476.6 257.726 476.699C258.369 476.896 258.763 476.996 259.307 476.996C260.644 476.996 261.286 476.748 261.978 475.413L262.225 474.819L253.175 453.845C252.976 453.349 252.777 452.608 252.777 452.114C252.777 449.986 254.411 448.503 256.487 448.503C258.369 448.503 259.458 449.542 260.1 451.321L265.838 466.757L271.377 451.372C271.971 449.79 273.06 448.503 274.989 448.503C276.916 448.503 278.55 449.986 278.55 451.966C278.55 452.56 278.351 453.401 278.204 453.746L268.955 475.956C266.727 481.349 264.501 483.376 260.002 483.376C258.32 483.375 257.134 483.128 255.894 482.683Z" fill="#231F20"/>
<path d="M187.264 379.353V391.082L159.633 375.142V343.243L169.785 349.107L169.613 349.203L170.094 362.875L181.88 356.087L187.264 359.183V365.336L175.186 372.315L187.072 379.468L187.264 379.353Z" fill="white"/>
<path d="M215.356 363.144V363.164L220.142 360.394L225.334 369.373L215.356 375.142L187.494 391.217L187.264 391.082V379.353L215.356 363.144Z" fill="#D0D1CC"/>
<path d="M191.146 350.722L196.512 359.99L187.264 365.336V359.183L181.88 356.087L191.146 350.722Z" fill="#D0D1CC"/>
<path d="M187.553 326.918L197.512 321.169L202.664 330.11L197.876 332.859L197.896 332.88L169.785 349.107L159.633 343.243V342.975L187.494 326.881L187.553 326.918Z" fill="#D0D1CC"/>
<path d="M159.633 343.243L148.346 336.726V381.659L187.264 404.138V391.082L159.633 375.142V343.243Z" fill="#F4753B"/>
<path d="M175.186 372.315L187.072 379.468L187.264 379.353V365.336L175.186 372.315Z" fill="#F4753B"/>
<path d="M181.88 356.087L169.785 349.107L169.613 349.203L170.094 362.875L181.88 356.087Z" fill="#F4753B"/>
<path d="M198.184 319.997L187.494 313.825L148.346 336.436V336.726L159.633 343.243V342.975L187.494 326.881L187.553 326.918L197.512 321.169L202.664 330.11L197.876 332.859L197.896 332.88L169.785 349.107L181.88 356.087L191.146 350.722L196.512 359.99L187.264 365.336V379.353L215.356 363.144V363.164L220.142 360.394L225.334 369.373L215.356 375.142L187.494 391.217L187.264 391.082V404.138L187.494 404.272L226.662 381.659V369.373V336.436L198.184 319.997Z" fill="#EBA222"/>
<path d="M128.637 489.418H133.737V490.486H129.869V493.237H133.016V494.305H129.869V497.129H133.951V498.199H128.637V489.418Z" fill="#010101"/>
<path d="M135.765 489.418H136.996V497.13H140.928V498.2H135.764V489.418H135.765Z" fill="#010101"/>
<path d="M142.345 489.418H147.445V490.486H143.577V493.237H146.724V494.305H143.577V497.129H147.66V498.199H142.346V489.418H142.345Z" fill="#010101"/>
<path d="M148.353 489.418H149.682L151.86 495.626C152.022 496.097 152.194 496.831 152.194 496.831H152.22C152.22 496.831 152.393 496.097 152.554 495.626L154.759 489.418H156.062L152.829 498.2H151.598L148.353 489.418Z" fill="#010101"/>
<path d="M161.325 495.675H158.016L157.144 498.2H155.875L159.037 489.418H160.329L163.491 498.2H162.207L161.325 495.675ZM159.672 490.623C159.672 490.623 159.473 491.42 159.322 491.868L158.338 494.655H161.001L160.032 491.868C159.882 491.42 159.694 490.623 159.694 490.623H159.672Z" fill="#010101"/>
<path d="M166.124 490.486H163.116V489.418H170.368V490.486H167.356V498.2H166.124V490.486Z" fill="#010101"/>
<path d="M171.622 489.418H176.722V490.486H172.854V493.237H176.001V494.305H172.854V497.129H176.937V498.199H171.623V489.418H171.622Z" fill="#010101"/>
<path d="M183.801 494.48L180.853 489.418H182.246L183.876 492.304C184.15 492.788 184.409 493.41 184.409 493.41H184.435C184.435 493.41 184.694 492.802 184.968 492.304L186.575 489.418H187.969L185.032 494.48V498.2H183.8V494.48H183.801Z" fill="#010101"/>
<path d="M192.968 489.268C195.503 489.268 197.471 491.221 197.471 493.747C197.471 496.335 195.503 498.351 192.968 498.351C190.43 498.351 188.45 496.334 188.45 493.747C188.45 491.221 190.43 489.268 192.968 489.268ZM192.968 497.218C194.76 497.218 196.201 495.726 196.201 493.746C196.201 491.831 194.76 490.389 192.968 490.389C191.177 490.389 189.72 491.831 189.72 493.746C189.72 495.726 191.177 497.218 192.968 497.218Z" fill="#010101"/>
<path d="M199.139 489.418H200.37V495.091C200.37 496.434 201.237 497.218 202.582 497.218C203.937 497.218 204.82 496.434 204.82 495.065V489.419H206.051V495.092C206.051 497.044 204.647 498.352 202.596 498.352C200.542 498.352 199.138 497.044 199.138 495.092V489.418H199.139Z" fill="#010101"/>
<path d="M208.316 489.418H211.002C211.922 489.418 212.309 489.491 212.647 489.617C213.541 489.953 214.126 490.836 214.126 491.992C214.126 493.111 213.503 494.057 212.545 494.369V494.393C212.545 494.393 212.647 494.504 212.808 494.791L214.671 498.199H213.277L211.425 494.703H209.547V498.199H208.316V489.418ZM211.313 493.636C212.27 493.636 212.868 493.026 212.868 492.043C212.868 491.396 212.62 490.936 212.173 490.686C211.937 490.562 211.652 490.487 210.964 490.487H209.548V493.636H211.313Z" fill="#010101"/>
<path d="M219.508 496.259C219.508 496.259 220.443 497.205 221.75 497.205C222.568 497.205 223.267 496.745 223.267 495.911C223.267 494.007 219.012 494.418 219.012 491.718C219.012 490.352 220.196 489.268 221.848 489.268C223.478 489.268 224.337 490.153 224.337 490.153L223.777 491.173C223.777 491.173 222.966 490.414 221.847 490.414C220.915 490.414 220.254 490.998 220.254 491.694C220.254 493.51 224.509 493.026 224.509 495.874C224.509 497.23 223.465 498.352 221.723 498.352C219.857 498.352 218.812 497.193 218.812 497.193L219.508 496.259Z" fill="#010101"/>
<path d="M228.152 490.486H225.144V489.418H232.396V490.486H229.384V498.2H228.152V490.486Z" fill="#010101"/>
<path d="M237.47 495.675H234.161L233.29 498.2H232.02L235.182 489.418H236.474L239.636 498.2H238.352L237.47 495.675ZM235.817 490.623C235.817 490.623 235.618 491.42 235.468 491.868L234.484 494.655H237.147L236.177 491.868C236.028 491.42 235.839 490.623 235.839 490.623H235.817Z" fill="#010101"/>
<path d="M242.194 494.48L239.246 489.418H240.64L242.27 492.304C242.544 492.788 242.807 493.41 242.807 493.41H242.829C242.829 493.41 243.092 492.802 243.366 492.304L244.97 489.418H246.364L243.426 494.48V498.2H242.195V494.48H242.194Z" fill="#010101"/>
<path fill-rule="evenodd" clip-rule="evenodd" d="M462.152 96.7389L416.15 57.911L252.24 252.108L252.512 252.338L308.471 232.153L297.972 290.707L298.243 290.936L462.152 96.7389Z" fill="url(#paint0_linear_0_7)"/>
<path fill-rule="evenodd" clip-rule="evenodd" d="M-80.3765 762.094L-34.3736 800.922L129.535 606.724L129.264 606.495L73.3052 626.679L83.8043 568.126L83.5326 567.896L-80.3765 762.094Z" fill="url(#paint1_linear_0_7)"/>
</g>
<defs>
<linearGradient id="paint0_linear_0_7" x1="439.151" y1="77.325" x2="275.242" y2="271.522" gradientUnits="userSpaceOnUse">
<stop stop-color="#F4753B" stop-opacity="0.12"/>
<stop offset="1" stop-color="#F4753B" stop-opacity="0"/>
</linearGradient>
<linearGradient id="paint1_linear_0_7" x1="-57.375" y1="781.508" x2="106.534" y2="587.31" gradientUnits="userSpaceOnUse">
<stop stop-color="#F4753B" stop-opacity="0.12"/>
<stop offset="1" stop-color="#F4753B" stop-opacity="0"/>
</linearGradient>
<clipPath id="clip0_0_7">
<rect width="375" height="812" fill="white" transform="translate(0 0.0880127)"/>
</clipPath>
</defs>
</svg>
