<svg width="5" height="16" viewBox="0 0 5 16" fill="none" xmlns="http://www.w3.org/2000/svg">
<path d="M2.36328 4.5376C3.39453 4.5376 4.23828 3.69385 4.23828 2.6626C4.23828 1.63135 3.39453 0.787598 2.36328 0.787598C1.33203 0.787598 0.488281 1.63135 0.488281 2.6626C0.488281 3.69385 1.33203 4.5376 2.36328 4.5376ZM2.36328 6.4126C1.33203 6.4126 0.488281 7.25635 0.488281 8.2876C0.488281 9.31885 1.33203 10.1626 2.36328 10.1626C3.39453 10.1626 4.23828 9.31885 4.23828 8.2876C4.23828 7.25635 3.39453 6.4126 2.36328 6.4126ZM2.36328 12.0376C1.33203 12.0376 0.488281 12.8813 0.488281 13.9126C0.488281 14.9438 1.33203 15.7876 2.36328 15.7876C3.39453 15.7876 4.23828 14.9438 4.23828 13.9126C4.23828 12.8813 3.39453 12.0376 2.36328 12.0376Z" fill="#231F20"/>
</svg>
